<?xml version="1.0" encoding="UTF-8"?>
<!-- Source for public/og-image.png (1200x630 social share card).
     Edit here, then regenerate:  rsvg-convert -w 1200 -h 630 og-image.src.svg -o public/og-image.png -->
<svg width="1200" height="630" viewBox="0 0 1200 630" xmlns="http://www.w3.org/2000/svg">
  <defs>
    <linearGradient id="bg" x1="0" y1="0" x2="0" y2="1">
      <stop offset="0" stop-color="#FBF3EC"/>
      <stop offset="1" stop-color="#F6E3D6"/>
    </linearGradient>
    <clipPath id="headClipOg"><circle cx="256" cy="290" r="140"/></clipPath>
  </defs>

  <!-- Warm card background -->
  <rect width="1200" height="630" fill="url(#bg)"/>

  <!-- ====== Left: copy ====== -->
  <text x="90" y="222" font-family="Avenir Next, Helvetica Neue, Helvetica, Arial, sans-serif" font-size="116" font-weight="800" fill="#D67856" letter-spacing="-2">Cowch</text>

  <text x="92" y="298" font-family="Avenir Next, Helvetica Neue, Helvetica, Arial, sans-serif" font-size="42" font-weight="700" fill="#2D2D2D">Your pocket wellness coach</text>

  <text x="92" y="368" font-family="Avenir Next, Helvetica Neue, Helvetica, Arial, sans-serif" font-size="29" font-weight="400" fill="#5A5550">Chat with Mandy &#8212; warm, private,</text>
  <text x="92" y="408" font-family="Avenir Next, Helvetica Neue, Helvetica, Arial, sans-serif" font-size="29" font-weight="400" fill="#5A5550">built on a real CBT therapist&#8217;s approach.</text>

  <!-- URL pill -->
  <rect x="92" y="470" width="250" height="64" rx="32" fill="#2D5C38"/>
  <text x="217" y="512" text-anchor="middle" font-family="Avenir Next, Helvetica Neue, Helvetica, Arial, sans-serif" font-size="32" font-weight="700" fill="#F5F0E8">cowch.app</text>

  <!-- ====== Right: the cow badge (reused from cowch-perky.svg, scaled) ====== -->
  <g transform="translate(728,108) scale(0.81)">
    <!-- Green rounded card background -->
    <rect width="512" height="512" rx="102" ry="102" fill="#2D5C38"/>
    <rect x="8" y="8" width="496" height="496" rx="94" ry="94" fill="none" stroke="#3D6C48" stroke-width="8"/>

    <!-- Perky-eared dairy chibi cow -->
    <g transform="translate(256, 290)">
      <g transform="translate(-70, -132) rotate(-18)">
        <ellipse cx="0" cy="0" rx="24" ry="50" fill="#F5F0E8"/>
        <ellipse cx="0" cy="8" rx="12" ry="34" fill="#FFB7D0"/>
      </g>
      <g transform="translate(70, -132) rotate(18)">
        <ellipse cx="0" cy="0" rx="24" ry="50" fill="#F5F0E8"/>
        <ellipse cx="0" cy="8" rx="12" ry="34" fill="#FFB7D0"/>
      </g>
      <ellipse cx="-28" cy="-160" rx="10" ry="16" fill="#F37A53" transform="rotate(-12 -28 -160)"/>
      <ellipse cx="28" cy="-160" rx="10" ry="16" fill="#F37A53" transform="rotate(12 28 -160)"/>
      <path d="M -10 -172 Q 0 -188 10 -172" stroke="#F37A53" stroke-width="7" fill="none" stroke-linecap="round"/>
      <circle cx="0" cy="0" r="140" fill="#F5F0E8"/>
    </g>

    <!-- Dairy spots -->
    <g clip-path="url(#headClipOg)">
      <ellipse cx="196" cy="232" rx="36" ry="28" fill="#F37A53" transform="rotate(-18 196 232)"/>
      <ellipse cx="316" cy="220" rx="22" ry="18" fill="#F37A53" transform="rotate(20 316 220)"/>
      <ellipse cx="334" cy="318" rx="30" ry="24" fill="#F37A53" transform="rotate(18 334 318)"/>
      <ellipse cx="202" cy="362" rx="24" ry="20" fill="#F37A53" transform="rotate(-24 202 362)"/>
    </g>

    <!-- Face features -->
    <g transform="translate(256, 290)">
      <ellipse cx="0" cy="48" rx="70" ry="44" fill="#FFD1C0"/>
      <ellipse cx="-22" cy="46" rx="7" ry="5" fill="#2D2D2D"/>
      <ellipse cx="22" cy="46" rx="7" ry="5" fill="#2D2D2D"/>
      <path d="M -26 72 Q 0 108 26 72" stroke="#2D2D2D" stroke-width="7" fill="none" stroke-linecap="round"/>
      <path d="M -8 88 Q 0 100 8 88" fill="#FFB7D0"/>
      <circle cx="-95" cy="30" r="22" fill="#FFB7D0" opacity="0.85"/>
      <circle cx="95" cy="30" r="22" fill="#FFB7D0" opacity="0.85"/>
      <path d="M -64 -18 Q -42 -54 -20 -18" stroke="#2D2D2D" stroke-width="10" fill="none" stroke-linecap="round"/>
      <path d="M 20 -18 Q 42 -54 64 -18" stroke="#2D2D2D" stroke-width="10" fill="none" stroke-linecap="round"/>
      <path d="M -64 -18 L -72 -26" stroke="#2D2D2D" stroke-width="6" fill="none" stroke-linecap="round"/>
      <path d="M 64 -18 L 72 -26" stroke="#2D2D2D" stroke-width="6" fill="none" stroke-linecap="round"/>
    </g>
  </g>
</svg>
