<?xml version="1.0" encoding="UTF-8"?>
<svg width="512" height="512" viewBox="0 0 512 512" xmlns="http://www.w3.org/2000/svg">

  <!-- Amber rounded card background (matches "Choose what you need help with") -->
  <rect width="512" height="512" rx="102" ry="102" fill="#FFE1B6"/>

  <!-- Amber border accent -->
  <rect x="8" y="8" width="496" height="496" rx="94" ry="94" fill="none" stroke="#F5A66E" stroke-width="8"/>

  <!-- Cow Face — delicate, stylised, therapeutic -->
  <g transform="translate(256, 280)">

    <!-- Horns (thin curved cream strokes) -->
    <path d="M -85 -110 Q -95 -160 -70 -180" stroke="#F5F0E8" stroke-width="20" stroke-linecap="round" fill="none"/>
    <path d="M 85 -110 Q 95 -160 70 -180" stroke="#F5F0E8" stroke-width="20" stroke-linecap="round" fill="none"/>

    <!-- Ears (outward coral with darker inner detail) -->
    <ellipse cx="-130" cy="-60" rx="45" ry="28" fill="#D4896A" transform="rotate(-30 -130 -60)"/>
    <ellipse cx="130" cy="-60" rx="45" ry="28" fill="#D4896A" transform="rotate(30 130 -60)"/>
    <ellipse cx="-125" cy="-55" rx="25" ry="15" fill="#C47A5D" transform="rotate(-30 -125 -55)"/>
    <ellipse cx="125" cy="-55" rx="25" ry="15" fill="#C47A5D" transform="rotate(30 125 -55)"/>

    <!-- Main face shape — wide, friendly oval -->
    <ellipse cx="0" cy="0" rx="140" ry="120" fill="#D4896A"/>

    <!-- Snout / muzzle — lighter cream area -->
    <ellipse cx="0" cy="50" rx="80" ry="55" fill="#F5F0E8"/>

    <!-- Nostrils -->
    <ellipse cx="-28" cy="55" rx="14" ry="10" fill="#2D5C38"/>
    <ellipse cx="28" cy="55" rx="14" ry="10" fill="#2D5C38"/>

    <!-- Eyes — gentle closed arcs -->
    <g stroke="#2D5C38" stroke-width="8" stroke-linecap="round" fill="none">
      <path d="M -70 -30 Q -50 -50 -30 -30"/>
      <path d="M 30 -30 Q 50 -50 70 -30"/>
    </g>

  </g>
</svg>
