<?xml version="1.0" encoding="UTF-8"?>
<svg width="512" height="512" viewBox="0 0 512 512" xmlns="http://www.w3.org/2000/svg">
  <defs>
    <!-- Subtle texture grain -->
    <filter id="grain">
      <feTurbulence type="fractalNoise" baseFrequency="0.9" numOctaves="4" result="noise"/>
      <feColorMatrix type="saturate" values="0"/>
      <feComponentTransfer>
        <feFuncA type="linear" slope="0.08"/>
      </feComponentTransfer>
      <feBlend in="SourceGraphic" mode="overlay"/>
    </filter>

    <!-- Warm glow for cow -->
    <filter id="glow" x="-20%" y="-20%" width="140%" height="140%">
      <feGaussianBlur stdDeviation="8" result="blur"/>
      <feComposite in="SourceGraphic" in2="blur" operator="over"/>
    </filter>
  </defs>

  <!-- Background - Dark warm brown with rounded corners (brutalist chunky) -->
  <rect width="512" height="512" rx="102" ry="102" fill="#1a1512"/>

  <!-- Subtle border accent -->
  <rect x="8" y="8" width="496" height="496" rx="94" ry="94" fill="none" stroke="#2d2825" stroke-width="8"/>

  <!-- Cow Face - Stylized, warm, therapeutic -->
  <g transform="translate(256, 280)" filter="url(#glow)">

    <!-- Main face shape - wide, friendly oval -->
    <ellipse cx="0" cy="0" rx="140" ry="120" fill="#D4896A"/>

    <!-- Snout/muzzle - lighter cream area -->
    <ellipse cx="0" cy="50" rx="80" ry="55" fill="#F5F0E8"/>

    <!-- Nostrils - simple, friendly -->
    <ellipse cx="-28" cy="55" rx="14" ry="10" fill="#1a1512"/>
    <ellipse cx="28" cy="55" rx="14" ry="10" fill="#1a1512"/>

    <!-- Eyes - closed, serene, therapeutic -->
    <g stroke="#1a1512" stroke-width="8" stroke-linecap="round" fill="none">
      <!-- Left eye - gentle closed arc -->
      <path d="M -70 -30 Q -50 -50 -30 -30"/>
      <!-- Right eye - gentle closed arc -->
      <path d="M 30 -30 Q 50 -50 70 -30"/>
    </g>

    <!-- Ears - characteristic cow ears pointing outward -->
    <ellipse cx="-130" cy="-60" rx="45" ry="28" fill="#D4896A" transform="rotate(-30 -130 -60)"/>
    <ellipse cx="130" cy="-60" rx="45" ry="28" fill="#D4896A" transform="rotate(30 130 -60)"/>

    <!-- Inner ear detail -->
    <ellipse cx="-125" cy="-55" rx="25" ry="15" fill="#C47A5D" transform="rotate(-30 -125 -55)"/>
    <ellipse cx="125" cy="-55" rx="25" ry="15" fill="#C47A5D" transform="rotate(30 125 -55)"/>

    <!-- Horns - small, cute, not aggressive -->
    <path d="M -85 -110 Q -95 -160 -70 -180" stroke="#F5F0E8" stroke-width="20" stroke-linecap="round" fill="none"/>
    <path d="M 85 -110 Q 95 -160 70 -180" stroke="#F5F0E8" stroke-width="20" stroke-linecap="round" fill="none"/>

    <!-- Spot on forehead - characteristic cow marking -->
    <ellipse cx="15" cy="-70" rx="35" ry="25" fill="#C47A5D" transform="rotate(15 15 -70)"/>

  </g>

  <!-- Texture overlay -->
  <rect width="512" height="512" rx="102" ry="102" fill="transparent" filter="url(#grain)"/>
</svg>
