<?xml version="1.0" encoding="UTF-8"?>
<svg width="512" height="512" viewBox="50 100 412 388" xmlns="http://www.w3.org/2000/svg" role="img" aria-label="Two people hugging">

  <!-- Sage body — right half of the heart -->
  <path d="
      M 256 470
      C 360 470, 432 416, 448 348
      C 462 280, 432 220, 376 208
      C 320 198, 280 230, 268 280
      C 262 330, 258 400, 256 470 Z"
    fill="#9AAA82"/>

  <!-- Brown body — left half of the heart -->
  <path d="
      M 256 470
      C 152 470, 80 416, 64 348
      C 50 280, 80 220, 136 208
      C 192 198, 232 230, 244 280
      C 250 330, 254 400, 256 470 Z"
    fill="#8A7356"/>

  <!-- Brown head — left, larger, sits on top of the heart -->
  <circle cx="216" cy="184" r="60" fill="#8A7356"/>

  <!-- Sage head — right, smaller, overlapping the brown head -->
  <circle cx="304" cy="202" r="48" fill="#9AAA82"/>

</svg>
