<?xml version="1.0" encoding="UTF-8"?>
<svg width="64" height="64" viewBox="0 0 64 64" xmlns="http://www.w3.org/2000/svg">
  <!-- Pre-chibi original Cowch face — simplified for favicon -->
  <rect width="64" height="64" rx="14" ry="14" fill="#2D5C38"/>

  <g transform="translate(32, 36)">
    <path d="M -11 -14 Q -12 -20 -9 -23" stroke="#F5F0E8" stroke-width="3" stroke-linecap="round" fill="none"/>
    <path d="M 11 -14 Q 12 -20 9 -23" stroke="#F5F0E8" stroke-width="3" stroke-linecap="round" fill="none"/>

    <ellipse cx="-16" cy="-8" rx="6" ry="4" fill="#D4896A" transform="rotate(-30 -16 -8)"/>
    <ellipse cx="16" cy="-8" rx="6" ry="4" fill="#D4896A" transform="rotate(30 16 -8)"/>
    <ellipse cx="-15" cy="-7" rx="3" ry="2" fill="#C47A5D" transform="rotate(-30 -15 -7)"/>
    <ellipse cx="15" cy="-7" rx="3" ry="2" fill="#C47A5D" transform="rotate(30 15 -7)"/>

    <ellipse cx="0" cy="0" rx="18" ry="15" fill="#D4896A"/>

    <ellipse cx="0" cy="6" rx="10" ry="7" fill="#F5F0E8"/>

    <ellipse cx="-3.5" cy="7" rx="1.6" ry="1.2" fill="#2D5C38"/>
    <ellipse cx="3.5" cy="7" rx="1.6" ry="1.2" fill="#2D5C38"/>

    <path d="M -9 -4 Q -6 -8 -3 -4" stroke="#2D5C38" stroke-width="1.5" fill="none" stroke-linecap="round"/>
    <path d="M 3 -4 Q 6 -8 9 -4" stroke="#2D5C38" stroke-width="1.5" fill="none" stroke-linecap="round"/>
  </g>
</svg>
